<?xml version="1.0" encoding="utf-8"?>
<!-- Generator: Adobe Illustrator 26.3.1, SVG Export Plug-In . SVG Version: 6.00 Build 0)  -->
<svg version="1.1" id="Layer_1" xmlns="http://www.w3.org/2000/svg" xmlns:xlink="http://www.w3.org/1999/xlink" x="0px" y="0px"
	 viewBox="0 0 200 200" style="enable-background:new 0 0 200 200;" xml:space="preserve">
<style type="text/css">
	.st0{fill:#FFFFFF;stroke:#FFFFFF;stroke-miterlimit:10;}
	.st1{fill:none;stroke:#000000;stroke-width:0.4123;stroke-miterlimit:10;}
	.st2{fill:#F9EDD2;}
	.st3{fill:#ADD0D8;stroke:#ADD0D8;stroke-width:0.4123;stroke-miterlimit:10;}
	.st4{fill:none;stroke:#F9EDD2;stroke-width:0.4934;stroke-miterlimit:10;}
	.st5{fill:#724010;}
	.st6{fill:none;}
	.st7{fill:#72893A;}
	.st8{fill:#9E6714;}
	.st9{fill:#EDD9B0;}
	.st10{fill:#EDC4D5;}
	.st11{fill:#CCCAC6;stroke:#CCCAC6;stroke-width:0.4123;stroke-miterlimit:10;}
	.st12{fill:#CCCAC6;}
	.st13{fill:none;stroke:#CCCAC6;stroke-width:0.4123;stroke-linecap:round;stroke-miterlimit:10;}
	.st14{fill:#ADD0D8;}
	.st15{fill:none;stroke:#A06918;stroke-width:0.4123;stroke-miterlimit:10;}
	.st16{fill:none;stroke:#EDD9B0;stroke-width:0.4123;stroke-linecap:round;stroke-linejoin:round;stroke-miterlimit:10;}
	.st17{fill:none;stroke:#FFFFFF;stroke-width:0.3441;stroke-miterlimit:10;}
	.st18{fill:#844C1E;stroke:#844C1E;stroke-miterlimit:10;}
	.st19{fill:#844C1E;}
</style>
<circle class="st0" cx="72.8" cy="79" r="4.4"/>
<ellipse class="st0" cx="92" cy="80.3" rx="4.4" ry="4.1"/>
<g>
	<path class="st1" d="M75,130c-0.4-0.1-0.7-0.1-0.7-0.1"/>
	<line class="st1" x1="75.5" y1="128.3" x2="74.6" y2="128.2"/>
</g>
<path class="st1" d="M65.6,47.7"/>
<path class="st2" d="M120.8,82.5c-2.3-6.8-10.9,2.8-10.9,2.8c-1.8,4.6-3.7,2.3-3.7,2.3c0.8-5.6,0.4-5.7,0.4-5.7
	c-0.7,0-1.1,1.2-1.3,2.6c0.1-0.5,0.3-0.9,0.5-1.4c-0.3,2.1-0.7,4.2-0.8,5.4l0,0c0,0.2,0,0.5,0,0.7s0.1,0.2,0.1,0.2
	c0,0.1-0.1,0.1-0.1,0c0,0.5,0,0.9-0.1,1c-4.4-3.2-0.6-9.7,1.2-12.3c0.4-0.5,0.5-1.3-0.2-1.3c-5.2-0.5-9.2-2.5-12.2-5.2
	c-1.3,0.1-3.7,0.2-6.6,0.2c0,0-3.2,2.7-3.3,0.7c0,0,1.1-3.3,7.7-3.3c-6-7.2-5.3-13.9-5.3-13.9c-8.1,0.4-10.8,3.2-10.8,3.2
	c-0.8,1.8-3.6,7.4-4.7,11.5l2.7,0.2c3.2,2.3,2.2,2.6,2.2,2.6c-0.8,0.9-2.2-0.7-2.6-0.7c-0.3,0-1.9-0.2-2.8-0.4
	C70.1,72,70,72.2,70,72.3c-0.2,0.5-0.4,1.1-0.4,1.7c-3.7,31.6,19.4,35.1,22.3,35.4l0,0c5.3-0.5,9.6-4.2,12.1-6.9
	c2.1-5.9,4.4-11.2,5.5-13.6c0.3-0.7,1.2-1.1,1.8-0.6c3.7,3.2,7.1,0,8.8-2.1C121,85.3,121.3,83.8,120.8,82.5z M69.1,79
	c0-2.1,1.5-3.9,3.4-3.9s3.4,1.7,3.4,3.9c0,2.1-1.5,3.9-3.4,3.9C70.7,82.8,69.1,81.1,69.1,79z M92.1,83.9c-2.1,0-3.9-1.7-3.9-3.9
	c0-2.1,1.7-3.9,3.9-3.9S96,77.8,96,80C96,82.1,94.2,83.9,92.1,83.9z"/>
<path class="st3" d="M122.1,131.5c-3.7,5.4-9.8,13.1-17.3,19.4c-4.2,3.4-10.5,3.8-14.4,0c-4.9-4.7-13.5-10.6-15.2-19.1
	c2.9-2.3,6.6-5,11.3-8.2c0.5-0.4,1.5-0.5,2-0.3c-0.9,15.5,10.9,10.9,16.2,8c2.6,2.1,6.6,2.7,12.9-0.9c1.1-0.6,2.3-0.6,3.3,0
	C121.3,130.7,121.6,131.2,122.1,131.5z"/>
<path class="st2" d="M104.6,131.3c-5.4,2.9-17.1,7.5-16.2-8l0,0c0.3,0.1,0.6,0.1,0.8-0.3c0.6-1,2.9-13.4,2.9-13.4s-0.1,0-0.3,0
	c5.3-0.5,9.6-4.2,12.1-6.9c-2.2,6.2-4,13.2-3.8,18C100.2,120.8,100.5,128,104.6,131.3z"/>
<path class="st1" d="M75.1,131.8"/>
<path class="st4" d="M96,80c0.7,2.4-0.3,3.4-3.9,3.9c-2.1,0.3-3.9-1.7-3.9-3.9c0-2.1,1.7-3.9,3.9-3.9S95.4,77.9,96,80z"/>
<path class="st5" d="M75.7,73c-0.8,0.9-2.2-0.7-2.6-0.7c-0.3,0-2.6-0.1-3.5-0.3c0.2-0.5,0-0.8,0.2-1.5l3.7-0.1
	C76.7,72.8,75.7,73,75.7,73z"/>
<path class="st5" d="M93.9,71.7c-1.3,0.1-3.7,0.2-6.6,0.2c0,0-3.2,2.7-3.3,0.7c0,0,1.1-3.3,7.7-3.3C92.3,70.2,93,71,93.9,71.7z"/>
<path class="st6" d="M75.9,79c0,2.1-1.5,3.9-3.4,3.9s-3.4-1.7-3.4-3.9c0-2.1,1.5-3.9,3.4-3.9S75.9,76.8,75.9,79z"/>
<g>
	<circle class="st7" cx="90.8" cy="79.5" r="2.4"/>
	<circle class="st8" cx="90.4" cy="79.4" r="1.9"/>
</g>
<g>
	<circle class="st7" cx="71.6" cy="78.5" r="2.4"/>
	<circle class="st8" cx="71.3" cy="78.4" r="1.9"/>
</g>
<circle cx="89.9" cy="79.1" r="1"/>
<circle cx="70.8" cy="78.2" r="1"/>
<path class="st9" d="M77.1,88.8c-0.5,3.9,3.9,2.3,3.9,2.3c1.6,1.3,2.4-0.7,2.4-0.7"/>
<g>
	<path class="st10" d="M79.6,98.7c1.7-0.4,3.4,0.4,5,0c1.6-0.3,2.9-1.2,4.5-1.9c-0.8,2.9-4.4,4.9-7.2,3.4
		C81,99.8,80.3,99.3,79.6,98.7L79.6,98.7z"/>
</g>
<g>
	<path class="st9" d="M111.7,85.5c0.7-1.4,1.9-2.4,3.2-3c0.9-0.5,1.6-1.4,2.8-1.4c0.6,0,1.3,0.5,1.5,1c0.5,1.1,0.3,2.1,0,3.1h-0.1
		c-0.3-1.2-0.2-2.9-1.5-3.3c-0.8-0.1-1.9,0.3-2.5,0.8C114,83.7,113.1,84.8,111.7,85.5C111.8,85.6,111.7,85.5,111.7,85.5L111.7,85.5z
		"/>
</g>
<ellipse class="st11" cx="116.8" cy="80.2" rx="0.6" ry="0.6"/>
<path class="st12" d="M121.8,84.5c0,0.3-0.3,0.6-0.6,0.6c-0.2,0-0.3-0.1-0.4-0.2c0.1-0.3,0.2-0.6,0.2-1c0.1,0,0.2-0.1,0.2-0.1
	C121.5,83.9,121.8,84.1,121.8,84.5z"/>
<line class="st13" x1="117.3" y1="80.8" x2="120.5" y2="84.2"/>
<path class="st14" d="M138.3,153.7l-10.8,4.4c-0.9,0.4-2,0-2.4-0.9c-0.5-1.1-1.2-2.7-1.5-4.2l-0.2-1.6c0,0.5,0.1,1.1,0.2,1.6
	l0.4,3.2c0.1,1.3-0.7,2.5-2,2.9c-7.7,2.1-34,8.3-49.2-1c-0.9-0.6-1.3-1.7-0.9-2.6l2.3-6.2c-0.3,0.8-1.1,2.6-2.4,4.8
	c-1.2,2-3.8,2.6-5.7,1.4l-6.9-4.2c0.5-0.3,0.9-0.8,1.2-1.4c0.8-1.9,2-4.8,3.3-8.3c0,0,1.9-2.7,11.2-9.8c1.7,8.5,10.4,14.5,15.2,19.1
	c3.9,3.8,10.2,3.4,14.4,0c7.6-6.2,13.8-14.2,17.5-19.6c3.4,2.2,8.6,6,10.5,10.1c0,0,3.3,6.1,5.3,11.9
	C138.1,153.3,138.2,153.5,138.3,153.7z"/>
<line class="st15" x1="139.7" y1="153.3" x2="138.5" y2="153.8"/>
<path class="st16" d="M80.4,76.5c-0.2,7.4-1.7,10.4-1.7,10.4"/>
<rect x="7.6" y="6.4" class="st17" width="180.5" height="187.4"/>
<g>
	<path class="st10" d="M80.6,98.9c2.9-1.2,3.7-0.1,3.7-0.1c0.4-1.5,3.5-1,3.5-1"/>
	<path class="st10" d="M80.6,98.9c1.1-1,3-1.7,4.2-0.4l-1.1,0.2c0.6-1.7,2.8-1.5,4.1-0.8c-1,0.3-2.4,0.3-2.9,1.2l-1.1,0.2
		C82.9,98.7,81.7,99,80.6,98.9L80.6,98.9z"/>
</g>
<g>
	<path class="st9" d="M104.2,102.2c-2,1.5-4.2,2.5-6.6,3.2c-0.1,0-0.2,0-0.3-0.1c0-0.1,0-0.2,0.2-0.3
		C99.9,104.4,102.2,103.5,104.2,102.2L104.2,102.2z"/>
</g>
<path class="st18" d="M105.8,131.3c3.1,1.8,4.6,1.9,6.6,1.5c4.3-0.9,8.7-0.3,12.5,1.9c2.5,1.5,4.5,2.9,4.5,2.9
	c4.5,3.9,8.5,15,8.5,15s1.6-8.6,1.6-9s-16.8-15.9-16.8-15.9L105.8,131.3z"/>
<g>
	<g>
		<path class="st19" d="M141.3,153.6c0,0.1-0.1,0.1-0.2,0.2c-0.2,0.1-0.5,0.3-0.7,0.4c-0.7,0.4-1.8,0.5-2.2,0
			c-0.1-0.1-0.8-0.4-0.9-0.6c-2-5.8-5.4-11.9-5.4-11.9c-1.9-4-5.7-7.2-9.5-10.4c-0.5-0.3-1-0.6-1.4-0.9c-1-0.6-2.3-0.6-3.3,0
			c-6.4,3.6-10.4,3-12.9,0.9c-4.1-3.3-4.4-10.5-4.4-10.5c-0.3-4.9,1.6-11.8,3.8-18c2.1-5.9,4.4-11.2,5.5-13.6
			c0.3-0.7,1.2-1.1,1.8-0.6c3.7,3.2,7.1,0,8.8-2.1c0.3-0.4,0.6-0.9,0.7-1.4c0.1-0.4,0.2-0.7,0.2-1.1c0-0.5,0-0.9-0.2-1.4
			c-0.7-2.1-2-2.6-3.5-2.4c-0.4,0.1-0.7,0.2-1.1,0.3c-2.8,1.1-5.8,4.3-6.3,4.8l-0.1,0.1c-1.4,3.6-2.9,2.8-3.5,2.4
			c-0.1-0.1-0.2-0.3-0.2-0.5c0.3-2.3,0.5-3.6,0.5-4.4c0-0.5-0.7-0.7-0.9-0.2c-0.2,0.5-0.3,1.1-0.4,1.7c0,0,0,0,0,0.1
			c-0.7,2.2-0.4,3.8-0.3,4.5c0,0.2,0,0.4,0,0.4l0,0c0,0.4-0.5,0.6-0.8,0.3c-3.2-3.4,0.3-9.2,1.9-11.6c0.4-0.5,0.5-1.3-0.2-1.3
			c-5.2-0.5-9.2-2.5-12.2-5.2c-0.8-0.7-1.6-1.5-2.2-2.3c-0.1-0.1-0.2-0.3-0.3-0.4c-0.1-0.1-0.2-0.3-0.3-0.4
			c-0.2-0.3-0.4-0.5-0.6-0.8c-3.8-5.4-4.9-7.4-5.2-8c-0.1-0.1-0.1-0.2-0.2-0.2c-0.6-0.3-1.6-2.3-2.1-2.2c-4.6,0.9-1.5,0.2,0.1-0.3
			c0.5-0.1-0.6,0.7-1,1.1C79.3,60.9,72,66.3,71,69.8c0,0.1-0.1,0.3-0.1,0.4s-0.1,0.2-0.1,0.3c-0.2,0.6-0.3,1-0.4,1.4
			c0,0.1,0,0.1-0.1,0.2c-0.1,0.2-0.1,0.4-0.2,0.5c-0.2,0.5-0.4,1.1-0.4,1.7c0,0.3-0.1,0.6-0.1,0.9c-0.1,0.6-0.1,1.1-0.2,1.7
			c0,0.3,0,0.6-0.1,0.8l0,0c0,0.1,0,0.1,0,0.2V78c0,0.3,0,0.6,0,1c0,0.1,0,0.2,0,0.3c0,0.2,0,0.4,0,0.5v0.1l0,0c0,0.3,0,0.6,0,0.9
			c3,25.3,19.9,27.3,22.5,27.6c0,0,0,0.3,0.1,0.3c0.1-1.1,0.4,0.5,0.4,0.9c0,0.1,0,0.1,0,0.2c-0.2,1-2.3,12.3-2.9,13.3
			c-0.2,0.4-0.5,0.4-0.8,0.3l0,0c-0.6-0.3-1.5-0.1-2,0.3c-4.6,3.2-8.3,5.9-11.3,8.2c-8.6,6.6-10.8,9.4-11.1,9.8c0,0,0,0.1-0.1,0.1
			c-1.3,3.5-2.5,6.3-3.3,8.2c-0.3,0.6-0.7,1.1-1.2,1.4c-0.5,0.3-1,0.4-1.6,0.4l0,0c-1.3-1.5-5-6.1-6.8-10.5c-1.1-2.8-0.4-6,1.8-8.1
			c4-3.7,11.5-11.2,16.1-18.1c2.9-4.4,3-10.1,0.3-14.6c-4.2-7-10.4-19-7.9-25.3c0,0,1.4-4.3,3.2-12c1.8-7.8,8.6-10.7,16-13.6
			c1.8-0.7,3.1-0.5,5.3-1.2h0.1c1.5,0,4.7-0.5,6.1-0.6c6.1-0.3,9.1,0,15.6,2.6c0.1,0,0.1,0.1,0.2,0.1c4.4,5,9.3,8.5,10.8,12.3
			c0.9,2.4,1.1,4.9,0.9,7.4c-0.5,5.9,2.9,13.2,4.3,15.2c0.4,0.6,0.4,1.4,0.6,2.1c1.4,3.6,0.3,7.3-1.6,11.5c-2.3,5-3.8,14.5-1.6,19.6
			c3.4,7.9,11.7,8.4,15.4,10.8c3.7,2.4,6.2,6.3,6.7,10.7C144.1,147.4,142.6,151.5,141.3,153.6z"/>
	</g>
</g>
</svg>
