<?xml version="1.0" encoding="UTF-8"?><svg id="Layer_1" xmlns="http://www.w3.org/2000/svg" viewBox="0 0 200 200"><defs><style>.cls-1{stroke:#844c1e;}.cls-1,.cls-2,.cls-3,.cls-4,.cls-5,.cls-6,.cls-7{stroke-miterlimit:10;}.cls-1,.cls-8{fill:#844c1e;}.cls-9,.cls-4{fill:#add0d8;}.cls-10,.cls-5{fill:#fff;}.cls-2{stroke:#f9edd2;stroke-width:.49px;}.cls-2,.cls-11,.cls-12,.cls-3,.cls-6,.cls-7{fill:none;}.cls-13{fill:#f9edd2;}.cls-14{fill:#e495ef;}.cls-15{fill:#724010;}.cls-16{fill:#3499d6;}.cls-17{fill:#72893a;}.cls-11{stroke:#edd9b0;stroke-linecap:round;stroke-linejoin:round;}.cls-11,.cls-3,.cls-4,.cls-6{stroke-width:.41px;}.cls-3{stroke:#000;}.cls-18{fill:#9e6714;}.cls-4{stroke:#add0d8;}.cls-5,.cls-7{stroke:#fff;}.cls-6{stroke:#a06918;}.cls-19{fill:#edd9b0;}.cls-20{fill:#edc4d5;}.cls-7{stroke-width:.34px;}</style></defs><circle class="cls-16" cx="98.62" cy="100.88" r="104.62"/><circle class="cls-14" cx="100.88" cy="101.62" r="88.12"/><circle class="cls-5" cx="72.8" cy="79" r="4.4"/><ellipse class="cls-5" cx="92" cy="80.3" rx="4.4" ry="4.1"/><g><path class="cls-3" d="M75,130c-.4-.1-.7-.1-.7-.1"/><line class="cls-3" x1="75.5" y1="128.3" x2="74.6" y2="128.2"/></g><circle class="cls-10" cx="99" cy="104.25" r="65.25"/><path class="cls-13" d="M120.8,82.5c-2.3-6.8-10.9,2.8-10.9,2.8-1.8,4.6-3.7,2.3-3.7,2.3,.8-5.6,.4-5.7,.4-5.7-.7,0-1.1,1.2-1.3,2.6,.1-.5,.3-.9,.5-1.4-.3,2.1-.7,4.2-.8,5.4h0v.7c0,.2,.1,.2,.1,.2,0,.1-.1,.1-.1,0,0,.5,0,.9-.1,1-4.4-3.2-.6-9.7,1.2-12.3,.4-.5,.5-1.3-.2-1.3-5.2-.5-9.2-2.5-12.2-5.2-1.3,.1-3.7,.2-6.6,.2,0,0-3.2,2.7-3.3,.7,0,0,1.1-3.3,7.7-3.3-6-7.2-5.3-13.9-5.3-13.9-8.1,.4-10.8,3.2-10.8,3.2-.8,1.8-3.6,7.4-4.7,11.5l2.7,.2c3.2,2.3,2.2,2.6,2.2,2.6-.8,.9-2.2-.7-2.6-.7-.3,0-1.9-.2-2.8-.4-.1,.3-.2,.5-.2,.6-.2,.5-.4,1.1-.4,1.7-3.7,31.6,19.4,35.1,22.3,35.4h0c5.3-.5,9.6-4.2,12.1-6.9,2.1-5.9,4.4-11.2,5.5-13.6,.3-.7,1.2-1.1,1.8-.6,3.7,3.2,7.1,0,8.8-2.1,.9-.9,1.2-2.4,.7-3.7Zm-51.7-3.5c0-2.1,1.5-3.9,3.4-3.9s3.4,1.7,3.4,3.9-1.5,3.9-3.4,3.9c-1.8-.1-3.4-1.8-3.4-3.9Zm23,4.9c-2.1,0-3.9-1.7-3.9-3.9s1.7-3.9,3.9-3.9,3.9,1.7,3.9,3.9-1.8,3.9-3.9,3.9Z"/><path class="cls-4" d="M122.12,131.5c-3.7,5.4-9.82,13.1-17.32,19.4-4.2,3.4-10.5,3.8-14.4,0-4.9-4.7-13.5-10.6-15.2-19.1,2.9-2.3,6.6-5,11.3-8.2,.5-.4,1.5-.5,2-.3-.9,15.5,10.9,10.9,16.2,8,2.6,2.1,6.6,2.7,12.9-.9,1.1-.6,2.3-.6,3.3,0,.4,.3,.72,.8,1.22,1.1Z"/><path class="cls-13" d="M104.6,131.3c-5.4,2.9-17.1,7.5-16.2-8h0c.3,.1,.6,.1,.8-.3,.6-1,2.9-13.4,2.9-13.4h-.3c5.3-.5,9.6-4.2,12.1-6.9-2.2,6.2-4,13.2-3.8,18,.1,.1,.4,7.3,4.5,10.6Z"/><path class="cls-2" d="M96,80c.7,2.4-.3,3.4-3.9,3.9-2.1,.3-3.9-1.7-3.9-3.9s1.7-3.9,3.9-3.9,3.3,1.8,3.9,3.9Z"/><path class="cls-15" d="M75.7,73c-.8,.9-2.2-.7-2.6-.7-.3,0-2.6-.1-3.5-.3,.2-.5,0-.8,.2-1.5l3.7-.1c3.2,2.4,2.2,2.6,2.2,2.6Z"/><path class="cls-15" d="M93.9,71.7c-1.3,.1-3.7,.2-6.6,.2,0,0-3.2,2.7-3.3,.7,0,0,1.1-3.3,7.7-3.3,.6,.9,1.3,1.7,2.2,2.4Z"/><path class="cls-12" d="M75.9,79c0,2.1-1.5,3.9-3.4,3.9s-3.4-1.7-3.4-3.9,1.5-3.9,3.4-3.9,3.4,1.7,3.4,3.9Z"/><g><circle class="cls-17" cx="90.8" cy="79.5" r="2.4"/><circle class="cls-18" cx="90.4" cy="79.4" r="1.9"/></g><g><circle class="cls-17" cx="71.6" cy="78.5" r="2.4"/><circle class="cls-18" cx="71.3" cy="78.4" r="1.9"/></g><circle cx="89.9" cy="79.1" r="1"/><circle cx="70.8" cy="78.2" r="1"/><path class="cls-19" d="M77.1,88.8c-.5,3.9,3.9,2.3,3.9,2.3,1.6,1.3,2.4-.7,2.4-.7"/><path class="cls-20" d="M79.6,98.7c1.7-.4,3.4,.4,5,0,1.6-.3,2.9-1.2,4.5-1.9-.8,2.9-4.4,4.9-7.2,3.4-.9-.4-1.6-.9-2.3-1.5h0Z"/><path class="cls-19" d="M111.7,85.5c.7-1.4,1.9-2.4,3.2-3,.9-.5,1.6-1.4,2.8-1.4,.6,0,1.3,.5,1.5,1,.5,1.1,.3,2.1,0,3.1h-.1c-.3-1.2-.2-2.9-1.5-3.3-.8-.1-1.9,.3-2.5,.8-1.1,1-2,2.1-3.4,2.8,.1,.1,0,0,0,0h0Z"/><path class="cls-9" d="M138.3,153.7l-10.8,4.4c-.9,.4-2,0-2.4-.9-.5-1.1-1.2-2.7-1.5-4.2l-.2-1.6c0,.5,.1,1.1,.2,1.6l.4,3.2c.1,1.3-.7,2.5-2,2.9-7.7,2.1-34,8.3-49.2-1-.9-.6-1.3-1.7-.9-2.6l2.3-6.2c-.3,.8-1.1,2.6-2.4,4.8-1.2,2-3.8,2.6-5.7,1.4l-6.9-4.2c.5-.3,.9-.8,1.2-1.4,.8-1.9,2-4.8,3.3-8.3,0,0,1.9-2.7,11.2-9.8,1.7,8.5,10.4,14.5,15.2,19.1,3.9,3.8,10.2,3.4,14.4,0,7.6-6.2,13.8-14.2,17.5-19.6,3.4,2.2,8.6,6,10.5,10.1,0,0,3.3,6.1,5.3,11.9,.3,0,.4,.2,.5,.4Z"/><line class="cls-6" x1="139.7" y1="153.3" x2="138.5" y2="153.8"/><path class="cls-11" d="M80.4,76.5c-.2,7.4-1.7,10.4-1.7,10.4"/><rect class="cls-7" x="7.6" y="6.4" width="180.5" height="187.4"/><g><path class="cls-20" d="M80.6,98.9c2.9-1.2,3.7-.1,3.7-.1,.4-1.5,3.5-1,3.5-1"/><path class="cls-20" d="M80.6,98.9c1.1-1,3-1.7,4.2-.4l-1.1,.2c.6-1.7,2.8-1.5,4.1-.8-1,.3-2.4,.3-2.9,1.2l-1.1,.2c-.9-.6-2.1-.3-3.2-.4h0Z"/></g><path class="cls-19" d="M104.2,102.2c-2,1.5-4.2,2.5-6.6,3.2-.1,0-.2,0-.3-.1,0-.1,0-.2,.2-.3,2.4-.6,4.7-1.5,6.7-2.8h0Z"/><path class="cls-1" d="M105.75,131.34c3.11,1.81,4.64,1.88,6.63,1.47,4.28-.88,8.73-.29,12.49,1.94,2.51,1.49,4.51,2.87,4.51,2.87,4.5,3.88,8.5,15,8.5,15,0,0,1.62-8.62,1.62-9s-16.75-15.88-16.75-15.88l-17,3.59Z"/><path class="cls-8" d="M141.3,153.6c0,.1-.1,.1-.2,.2-.2,.1-.5,.3-.7,.4-.7,.4-1.75,.49-2.15-.01-.1-.1-.77-.36-.88-.56-2-5.8-5.44-11.88-5.44-11.88-1.9-4-5.69-7.19-9.54-10.35-.5-.3-1-.6-1.4-.9-1-.6-2.3-.6-3.3,0-6.4,3.6-10.4,3-12.9,.9-4.1-3.3-4.4-10.5-4.4-10.5-.3-4.9,1.6-11.8,3.8-18,2.1-5.9,4.11-11.48,5.21-13.88,.3-.7,1.09-1.3,1.69-.8,3.7,3.2,7.3,.18,9-1.92,.3-.4,.7-.77,.8-1.27,.1-.4,.31-.53,.31-.93,0-.5,0-.9-.2-1.4-.7-2.1-2-2.6-3.5-2.4-.4,.1-.7,.2-1.1,.3-2.8,1.1-5.8,4.3-6.3,4.8l-.1,.1c-1.4,3.6-2.9,2.8-3.5,2.4-.1-.1-.2-.3-.2-.5,.3-2.3,.5-3.6,.5-4.4,0-.5-.7-.7-.9-.2-.2,.5-.3,1.1-.4,1.7v.1c-.7,2.2-.4,3.8-.3,4.5v.4h0c0,.4-.5,.6-.8,.3-3.2-3.4,.3-9.2,1.9-11.6,.4-.5,.5-1.3-.2-1.3-5.2-.5-9.2-2.5-12.2-5.2-.8-.7-1.6-1.5-2.2-2.3-.1-.1-.2-.3-.3-.4-.1-.1-.2-.3-.3-.4-.2-.3-.4-.5-.6-.8-3.8-5.4-4.9-7.4-5.2-8-.1-.1-.1-.2-.2-.2-.6-.3-1.6-2.3-2.1-2.2-4.6,.9-1.5,.2,.1-.3,.5-.1-.6,.7-1,1.1-2.8,2.7-10.1,8.1-11.1,11.6,0,.1-.1,.3-.1,.4s-.1,.2-.1,.3c-.2,.6-.3,1-.4,1.4q0,.1-.1,.2c-.1,.2-.1,.4-.2,.5-.2,.5-.4,1.1-.4,1.7,0,.3-.1,.6-.1,.9-.1,.6-.1,1.1-.2,1.7,0,.3,0,.6-.1,.8h0v2.2h0v.9c3,25.3,19.9,27.3,22.5,27.6,0,0,0,.3,.1,.3,.1-1.1,.4,.5,.4,.9v.2c-.2,1-2.3,12.3-2.9,13.3-.2,.4-.5,.4-.8,.3h0c-.6-.3-1.5-.1-2,.3-4.6,3.2-8.3,5.9-11.3,8.2-8.6,6.6-10.8,9.4-11.1,9.8,0,0,0,.1-.1,.1-1.3,3.5-2.5,6.3-3.3,8.2-.3,.6-.7,1.1-1.2,1.4-.5,.3-1,.4-1.6,.4h0c-1.3-1.5-5-6.1-6.8-10.5-1.1-2.8-.4-6,1.8-8.1,4-3.7,11.5-11.2,16.1-18.1,2.9-4.4,3-10.1,.3-14.6-4.2-7-10.4-19-7.9-25.3,0,0,1.4-4.3,3.2-12,1.8-7.8,8.6-10.7,16-13.6,1.8-.7,3.1-.5,5.3-1.2h.1c1.5,0,4.7-.5,6.1-.6,6.1-.3,9.1,0,15.6,2.6,.1,0,.1,.1,.2,.1,4.4,5,9.3,8.5,10.8,12.3,.9,2.4,1.1,4.9,.9,7.4-.5,5.9,2.9,13.2,4.3,15.2,.4,.6,.4,1.4,.6,2.1,1.4,3.6,.3,7.3-1.6,11.5-2.3,5-3.8,14.5-1.6,19.6,3.4,7.9,11.7,8.4,15.4,10.8,3.7,2.4,6.2,6.3,6.7,10.7,.6,7.3-.9,11.4-2.2,13.5Z"/></svg>