<?xml version="1.0" encoding="utf-8"?>
<!-- Generator: Adobe Illustrator 26.2.1, SVG Export Plug-In . SVG Version: 6.00 Build 0)  -->
<svg version="1.1" id="Layer_1" xmlns="http://www.w3.org/2000/svg" xmlns:xlink="http://www.w3.org/1999/xlink" x="0px" y="0px"
	 viewBox="0 0 1024 1024" style="enable-background:new 0 0 1024 1024;" xml:space="preserve">
<style type="text/css">
	.st0{fill:#8ED0DB;stroke:#000000;stroke-width:0.589;stroke-miterlimit:10;}
	.st1{fill:#EF81AD;stroke:#000000;stroke-width:0.4052;stroke-miterlimit:10;}
	.st2{fill:#F3D2C2;stroke:#000000;stroke-width:0.2397;stroke-miterlimit:10;}
	.st3{fill:#FFFFFF;}
</style>
<g>
	<path class="st0" d="M438.4,106c-125.8,0-227.8,102.5-227.8,228.9s102,228.9,227.8,228.9c125.8,0,227.8-102.5,227.8-228.9
		S564.3,106,438.4,106z M479.7,325.7c0-51.5,41.5-93.2,92.7-93.2s92.7,41.7,92.7,93.2c0,51.5-41.5,93.2-92.7,93.2
		S479.7,377.2,479.7,325.7z"/>
	<path class="st1" d="M509.1,171.3c-86.6,0-156.7,70.5-156.7,157.5c0,87,70.2,157.5,156.7,157.5c86.5,0,156.7-70.5,156.7-157.5
		C665.8,241.8,595.7,171.3,509.1,171.3z M572.4,418.9c-51.2,0-92.7-41.7-92.7-93.2c0-51.5,41.5-93.2,92.7-93.2s92.7,41.7,92.7,93.2
		C665.1,377.2,623.6,418.9,572.4,418.9z"/>
	<path class="st2" d="M665.1,325.7c0,51.5-41.5,93.2-92.7,93.2s-92.7-41.7-92.7-93.2c0-51.5,41.5-93.2,92.7-93.2
		C623.6,232.6,665.1,274.3,665.1,325.7z"/>
	<g>
		<path class="st3" d="M237.6,405.2c9.4-41.6,20-84.2,30.6-125.5l10.9-41.6c0.4-1.3,1.7-2.1,3-1.8c0.8,0.2,1.5,0.9,1.7,1.6
			l13.1,39.1c8.6,26.1,17.1,52.3,25.4,78.5c4.1,13.1,8.2,26.3,12.1,39.5c-4.9-12.9-9.6-25.8-14.4-38.7c-13.6-37.4-28-79-40.9-116.9
			l4.8-0.2C269.4,294,253.9,351.3,237.6,405.2L237.6,405.2z"/>
	</g>
	<g>
		<path class="st3" d="M232,307.4c16.3-2,32.6-2.4,48.9-2.5c16.4,0.1,32.7,0.5,48.9,2.5c-16.3,2-32.6,2.4-48.9,2.5
			C264.6,309.8,248.3,309.4,232,307.4L232,307.4z"/>
	</g>
	<g>
		<g>
			<path class="st3" d="M452.5,281.1c-28.5-5-57.1-0.2-69.7,28.7c-4.2,9.6-6.5,20.5-5.5,31c4.1,34.9,22.1,56,59.2,52
				c4.7-0.5,9.3-1.4,13.9-2.6c-8.7,4-18.3,6.1-27.9,6.3c-33.6,0.4-49.3-26.4-52.3-56.7c-0.9-21,7.9-43.5,26-55.2
				C412.9,273.8,434.3,275.1,452.5,281.1L452.5,281.1z"/>
		</g>
	</g>
	<g>
		<g>
			<path class="st3" d="M542.6,380c-1.3-21.9-1.8-43.9-2.2-65.9c-0.1-7.3-0.2-14.6-0.2-22c0-1.4,1.2-2.5,2.5-2.4
				c2.9,0.1,5.8,0.3,8.7,0.8c4.4,0.8,9.2,2.1,12.8,5.2c12.9,12.4-8.4,33.3-17.7,41.6l0.2-2.9c4.5,5.6,13.6,16.9,18,22.6
				c5.2,6.6,12.6,16.2,17.6,22.9c-3.3-3.5-6.6-7-9.9-10.6c-4.9-5.3-14.6-16-19.4-21.4l-9.5-10.8c-0.8-0.9-0.6-2.1,0.2-2.9
				c7-6.6,29.8-29.5,14.2-36.6c-4.6-2.2-10.2-2.8-15.4-3l2.5-2.4C544.8,321.5,544.3,350.8,542.6,380L542.6,380z"/>
		</g>
	</g>
</g>
</svg>
